/* XPM */
static char *result[] = {
/* columns rows colors chars-per-pixel */
"64 64 220 2 ",
"   c #2A1B00",
".  c #372905",
"X  c #3A2E17",
"o  c #3E3516",
"O  c #3E3119",
"+  c #44370E",
"@  c #443716",
"#  c #453817",
"$  c #4C3D17",
"%  c #42351B",
"&  c #463A1A",
"*  c #4A3D1B",
"=  c #473A25",
"-  c #4A3D23",
";  c #4E411C",
":  c #52441E",
">  c #584A1E",
",  c #69571E",
"<  c #74641F",
"1  c #454020",
"2  c #4F4122",
"3  c #524423",
"4  c #5B4C22",
"5  c #554829",
"6  c #5B4C2C",
"7  c #5C5529",
"8  c #544631",
"9  c #574933",
"0  c #5A4C33",
"q  c #5B4E3A",
"w  c #5F5133",
"e  c #5E513C",
"r  c #655524",
"t  c #6B5B26",
"y  c #64542A",
"u  c #675B29",
"i  c #6C5C2B",
"p  c #705F25",
"a  c #645534",
"s  c #6C5A35",
"d  c #62553B",
"f  c #625B3D",
"g  c #6A5A3D",
"h  c #6C602A",
"j  c #736226",
"k  c #74642A",
"l  c #796829",
"z  c #7C6B2B",
"x  c #6F6038",
"c  c #736332",
"v  c #79683B",
"b  c #645944",
"n  c #6B5E42",
"m  c #715843",
"M  c #6D6044",
"N  c #6F634B",
"B  c #746344",
"V  c #7A6645",
"C  c #7C6A45",
"Z  c #73654A",
"A  c #796748",
"S  c #76684C",
"D  c #7E6B4C",
"F  c #6F6452",
"G  c #746854",
"H  c #7B6D52",
"J  c #7E7055",
"K  c #7E715A",
"L  c #7C7162",
"P  c #816F2B",
"I  c #84722D",
"U  c #89762D",
"Y  c #8D7A2E",
"T  c #907C27",
"R  c #917E2E",
"E  c #887433",
"W  c #8D7B32",
"Q  c #927E31",
"!  c #816645",
"~  c #846D4A",
"^  c #816D4E",
"/  c #897843",
"(  c #85724C",
")  c #826F50",
"_  c #857253",
"`  c #897655",
"'  c #84755B",
"]  c #887759",
"[  c #88795B",
"{  c #8B7A5C",
"}  c #847661",
"|  c #867B63",
" . c #8B7D63",
".. c #8B7D69",
"X. c #907F61",
"o. c #99852C",
"O. c #968232",
"+. c #9A8534",
"@. c #9E8935",
"#. c #9E8A38",
"$. c #AA922C",
"%. c #A28D36",
"&. c #AA8E36",
"*. c #A38E39",
"=. c #A79037",
"-. c #AB9436",
";. c #A6913A",
":. c #AB943A",
">. c #AF983B",
",. c #B39A37",
"<. c #B99E32",
"1. c #B49B3C",
"2. c #B99E3D",
"3. c #BEA434",
"4. c #BBA23E",
"5. c #C1A534",
"6. c #C4A935",
"7. c #C0A63E",
"8. c #C7AC3C",
"9. c #CDB13B",
"0. c #D8B93B",
"q. c #E3C23D",
"w. c #9B8847",
"e. c #8C8259",
"r. c #908056",
"t. c #97875A",
"y. c #A08E4C",
"u. c #AD9742",
"i. c #B49C43",
"p. c #B99F41",
"a. c #A5945C",
"s. c #BEA441",
"d. c #B9A24C",
"f. c #B9A659",
"g. c #8B8266",
"h. c #8D826C",
"j. c #928264",
"k. c #93856A",
"l. c #99886B",
"z. c #9C906E",
"x. c #988B76",
"c. c #999177",
"v. c #9D917B",
"b. c #A5946D",
"n. c #A3957D",
"m. c #A69978",
"M. c #B9A766",
"N. c #C1A641",
"B. c #C4A942",
"V. c #C9AE43",
"C. c #C3AA4A",
"Z. c #C6AC4A",
"A. c #CDB143",
"S. c #CDB24A",
"D. c #D2B544",
"F. c #D6B945",
"G. c #DDBB47",
"H. c #DCBC46",
"J. c #C0AF5F",
"K. c #E2BD47",
"L. c #C7AF68",
"P. c #C8B465",
"I. c #CDBB6C",
"U. c #D0BF71",
"Y. c #DFC047",
"T. c #E3C248",
"R. c #DDC86F",
"E. c #D4C272",
"W. c #DECA74",
"Q. c #E5CE70",
"!. c #E9D378",
"~. c #968D86",
"^. c #9B9383",
"/. c #9D958B",
"(. c #A59987",
"). c #A49B8C",
"_. c #A79E97",
"`. c #ABA18C",
"'. c #ADA394",
"]. c #ACA499",
"[. c #B4A996",
"{. c #B3AA9B",
"}. c #B7B091",
"|. c #AEAAA5",
" X c #B4ACA6",
".X c #BCB3A3",
"XX c #BCB6AB",
"oX c #B8B4AC",
"OX c #B9B7B5",
"+X c #C2BBAD",
"@X c #C2BEB7",
"#X c #C4C2BD",
"$X c #C8C3B8",
"%X c #C7C5C2",
"&X c #CDCAC5",
"*X c #CFCCC9",
"=X c #D0CDC5",
"-X c #D1CECB",
";X c #D3D1CD",
":X c #DAD6CE",
">X c #D5D4D2",
",X c #D4D7D7",
"<X c #D9D7D3",
"1X c #DAD9D6",
"2X c #DDDCDB",
"3X c #E0DFDD",
"4X c #E0E0DE",
"5X c #DDDDE2",
"6X c #DEE3E3",
"7X c #E4E4E4",
"8X c #E6E6E8",
"9X c #E4E9EA",
"0X c #EBEBEC",
"qX c #EBECF2",
"wX c #EAE9F6",
"eX c #EEF3F9",
"rX c #F3F3F3",
"tX c #F3F3FB",
"yX c #F5F9FE",
"uX c #FDFDFD",
/* pixels */
"rX8XrXuXrX8XuXuX4X0XuX0X7XrXuX4X4XuXtX2X2X:X+X'.m.z.k.X.X.{ { { { j.X.k.k.l.n..X$X$X8XuX0X4XtXrX7X8XuXrX8XrXuX0X0XuXuX7XrXuXrX7X",
"rXrXrXrXrXrX0XrXrXrX8X0X0X8X7XrX8X-X.Xm.j._ _ ~ ` _ ) ) _ ] ^ _ ) ` ] _ _ ^ ( D ( ] l.`..X;X7X9XwX0X0X0XrX0X0XrXrX0XrXrXrX0XrXrX",
"rXrXrX0XrXrX0X0XrX0X8X8XrX7X$X{.b.] ^ A _ ^ _ _ _ ` ) ) _ _ H _ _ ` ` _ _ ^ _ ^ ] _ ` ^ A { b..X4X0X7X8XqX0X0XrXrX0X0XrXrXrXrXrX",
"rX4XrXuX0X8XrXrX3X4XuX7X+X(.{ ~ ( ` _ ) _ ^ _ _ _ ` ^ ^ _ _ ^ _ ) _ _ _ _ D _ ^ _ _ ` _ ) _ ) ! { `.:X0X2X0XrX0X0XuXrX0X0XuXrX8X",
"rXuXrX8X0XrX7X3XtX0X+Xm.` ~ ) _ ] _ _ ) _ D _ _ ` { ] ] } } ' ' J ' ' _ ] _ ] ) ] ) _ _ ^ ] _ ^ ( C ] (.:X7X3X0XrX7X8XuXrX4XrXuX",
"rX0X0XrX8X8X7X8X=Xm._ A ( ) _ _ ` _ _ _ ] ] L K S Z n f a w a 6 0 9 0 w d n Z H ' ] ] ) ^ _ _ _ _ ) _ V { `.<X9X7X0X0X0XrXrXrX0X",
"rX8X0X0X7X2X4X+X{ V _ _ _ ) _ _ _ ` ] K M g 5 5 > i p k I U U z l k l I z k 4 5 9 g S ' ] _ _ ^ _ ) _ ) ` ! l..X3X0X0X8X0XrXrX0X",
"0XrX8X1X0X3Xm.) _ ^ _ ) _ ) _ _ g.S e 6 7 u h < l U Q Q :.=.*.O.O.Y O.&.=.O.U l p u 6 9 n H { _ _ ^ ` ) ` ^ ~ ( '.-X2XrX0X4X0XuX",
"9X2X7XrX$Xk.^ _ _ ^ _ _ _ _  .D w 7 h k z I U U W O.O.O.;.=.;.+.O.W O.-.:.*.O.Y Y Y I l i 0 b K { ( ] _ ] ) ) ) D m.:X1X7XyX0X7X",
"7X7X6X+X{ ` _ _ _ ^ _ ^ ] K n 6 h z O.W O.O.U U E O.O.+.-.=.:.+.O.R O.*.:.=.O.O.Y +.+.+.W z k 5 M { ] _ _ _ ) ) _ ~ l.;X9X2X0X0X",
"2X0X+X_ ( ` _ ] _ D _ ] S 9 y l O.+.%.O.O.Y U U Y +.+.+.:.=.:.+.O.O.O.@.:.=.o.O.O.#.+.w.u.*.O.P y 9 H ] ( _ ) _ ) _ D l.=X2X7X0X",
"8X+X{ ! _ ] _ _ _ )  .n 5 t l O.-.-.+.O.O.O.O.U U +.+.+.-.i.:.@.O.O.O.*.:.*.O.O.O.O.#.;.;.-.-.*.Y l 5 A { _ D _ ) ` _ V k.8X4X3X",
">Xz.! D _ { _ _ ] | f 5 h l O.*.:.-.+.O.O.O.o.z O.+.+.o.M.$Xz.Y O.O.O.=.>.;.+.O.O.#.+.;.:.:.>.-.=.O.I 6 M j.^ ) ) ` _ H A `.8XqX",
").~ ^ ^ _ ] _ ]  .e u j z O.+.@.-.;.+.O.o.O.O.O.U +.@.o.b.x.N / +.O.O.=.>.;.+.O.+.#.*.y.;.>.>.-.-.1.+.I 6 M r._ ) _ ) A D _ XX2X",
"{ ^ ^ ^ ' ] )  .f y z I O.O.@.*.-.%.O.O.O.O.z O.O.#.O.w.t.U o.y.t.o.+.=.>.;.+.O.+.#.;.;.:.>.:.*.%.>.2.%.I 6 A ` ^ ) _ Z H ( g.1X",
"` _ ^ H _ ` _ Z 6 z Y O.+.+.+.*.-.o.O.O.O.O.O.O.O.*.o.m.w.:.:.:.a.y.o.:.>.@.+.O.+.#.;.;.1.;.@.@.%.:.1.,.+.z 8 H _ _ ) B ) _ V $X",
"` ) ) ^ _ ] H 8 z U %.@.+.@.#.*.>.@.O.+.+.O.R Y O.@.m.e.$.-.>.:.@.m.y.>.1.#.*.O.#.*.;.:.-.*.#.*.%.#.*.:.2.R p q X._ ^ B H _ ! v.",
"] ) ) D ) j.b i U @.-.%.@.@.#.:.>.%.+.@.O.O.O.R @.a.z.z 4.,.>.:.@.#.m.i.>.*.#.+.#.;.*.-.:.@.#.*.%.*.%.*.>.>.Y 6 D ` ^ B ) _ ^ j.",
"_ ^ ) D _ ' 9 z R -.1.*.#.#.*.>.1.@.+.+.O.O.R T *.v.l O.4.4.1.>.#.o.y.b.-.#.#.#.*.;.;.i.=.*.*.*.*.*.%.*.-.2.+.z q { ~ n ) _ ) { ",
"_ ) ) D ' M 7 I *.1.1.=.%.#.*.-.1.@.+.@.O.I g A .Xc.a s i s s s s y C XXl.a s g O.u.:.2.=.#.*.*.*.*.*.*.&.1.>.U 9 ) ` M _ _ ^ _ ",
"_ ) ^ D  .q t U 1.1.1.>.*.*.;.1.1.%.+.@.O.r ~.%X{.k.| ^.)./././.^.^.].`.k.v.].b l ;.1.i.*.*.*.;.*.#.*.*.;.p.1.O.i Z r.m ) _ ^ ] ",
"_ ^ D ) [ 9 h Q 2.1.1.1.*.#.:.2.2.*.@.%.O.y  X7XXXx.#X2X8X#Xn /.8X7X,Xh...>X2XL k *.1.>.*.*.*.;.*.#.*.*.;.1.2.%.z e t.n ) ) ^ _ ",
"_ ) D ) ' 9 j @.4.1.1.1.;.;.1.2.1.*.@.@.O.i OX,X;X,X;X1X*X2 . . Z ;X,X1X1X;X-Xx.j =.1.=.*.*.;.*.%.#.%.*.:.p.2.>.I q t.b ) ) ) ] ",
") ^ D ) H 5 j @.4.2.1.2.>.;.1.1.2.%.@.@.O.s %X>X;X;X;X;X0   @ +   b >X;X;X-X>Xv.j *.i.;.;.*.*.;.*.%.*.*.:.p.2.1.Y q { B _ _ ) _ ",
"_ H ^ ^ | 6 l +.4.4.2.2.:.;.4.4.2.%.*.+.O.v >X-X*X;X;XXXG K o 6 ).|.-X;X;X;X>X^., @.2.=.=.*.;.*.*.#.*.;.&.1.4.2.Y q { A _ _ ^ _ ",
"_ ^ ^ ^ g.9 < +.4.2.2.1.;.;.4.4.2.@.@.+.o.C &X%X%X*X*X;X6X1Xo # 3X2X;X;X;X;X1X(.< +.2.:.=.;.;.;.*.+.*.:.=.1.4.2.Q 0 t.V _ _ _ _ ",
") D ^ ^ h.a z w.s.2.2.2.2.1.4.s.2.%.@.O.O.C %X@X%X@X%X>X;X>X^.~.1X;X;X;X>X%X;X^.t O.s.:.;.*.;.;.*.%.*.:.:.>.4.2.W e t.A _ _ _ _ ",
"_ D ) D k.w ).L.3.4.2.s.4.s.s.4.1.*.+.+.O.x ~.^._._.|.#X%X%X*X&XOXOXOXoX|.).~.F z O.B.:.;.;.;.=.*.+.*.:.:.u.4.4.Y e g.D ) _ _ _ ",
"_ ^ ^ D X.d | }.3.s.4.s.7.B.s.s.>.#.@.O.+.W k , r r u i c c v z v s i y u t t i z E 4.:.;.*.;.;.%.+.*.>.>.:.p.4.U b X.^ _ _ _ ` ",
") ^ ) D  .S Z m.4.s.4.4.s.B.s.s.u.*.@.O.+.@.%.+.O.O.+.+.@.=.2.2.,.%.%.#.=.4.u.>.#.:.B.1.:.;.:.:.%.%.&.>.u.>.p.2.I b { ) _ _ _ _ ",
") ) ) ^ ] H H @XZ.s.s.s.B.B.B.s.i.*.@.+.+.@.@.*.;.*.*.:.:.1.s.B.B.1.;.:.:.s.p.p.>.s.B.i.:.;.:.:.*.@.;.i.u.>.1.,.z Z { ^ _ ` _ _ ",
") ) ) ^ ] _ 9 (.C.s.7.s.B.7.B.s.i.*.=.+.+.*.%.*.;.-.@.=.:.=.s.V.B.>.:.:.;.C.p.p.1.4.4.1.:.;.-.:.*.@.:.:.1.,.2.1.c G { ) _ _ _ { ",
"D _ ) ^ ] } y T 4.B.V.4.V.V.s.s.i.;.=.@.+.*.:.z > , u O.,.:.4.V.B.1.>.:.;.4.V.s.;.8.s.1.:.;.>.:.*.*.2.P i i P &.l H { _ _ ` ) k.",
") ) ) ^ _ ..a W 8.7.I 4 Y 8.V.d.-.;.=.+.+.>.I & O X > r I >.1.V.V.4.>.;.:.4.:.i i 1.A.2.>.:.>.:.;.:.E 1 - - r t y ' ] _ ) _ ~ x.",
") _ ) ) _ | x Y z > o & o 4 :.V.>.;.=.+.$.k o & @ @ % * o k >.s.B.4.1.4.%.h = 5 - % W 3.>.-.>.-.-.k O 3 - - - * =  .] _ ) _ ~ (.",
"_ ) ) ) _ { n $ o # ; o ; ; 1 v 2.:.,.=.r X @ @ * @ @ & & O 4 -.A.V.8.W * o ; 3 2 ; O u *.1.>.>.t X * 2 3 3 - & 9 g.] _ ) _ ~ (.",
"_ ) _ ) _ [ Z o # ; & o ; ; > 5 6 O.,.r X @ @ @ & O $ * & @ O 2 ,.D.z = * * * * ; ; : 3 2 U 3.t X & - 3 - - 3 & 0 j._ ` ` ) ^ +X",
"_ ) ) _ _ ' S @ # o & h 7 ; ; 5 5 & > O @ @ @ O t O.t * % @ * ; p p % 3 * * O 4 j > % 3 - % 4 O @ & * - I O.t O d k.) ` ` ^ ^ @X",
" ._ ) ) _ ] [ % X u %.F.8.Y 3 8 5 & * * @ @ @ z ,.4.,.@.j & : 4 > % * 3 * & P 9.Y.-.r = * * 2 & @ o 3 +.B.V.>.p g k.) _ _ ^ ^ &X",
"l._ ) _ _ ] ..* h 3.1.4.F.V.>.O.5 X ; & X ; o.>.=.-.>.>.,.%.j > : $ : & 3 +.4.N.A.H.B.O.5 O 2 O X : =.7.p.p.=.z B  .) _ _ ^ ` 3X",
").^ ) _ _ ` ..x +.-.:.4.F.4.1.S.2.l I y l O.-.=.;.:.>.>.>.>.4.@.t & * y 1.1.1.4.D.D.4.B.1.I I r z #.2.i.p.p.&.t Z  .) _ ] D { ;X",
"_.~ ) _ _ _ ..g O.=.>.4.D.A.4.s.s.>.2.2.,.=.:.=.;.:.>.1.>.-.>.1.3.I i 9.8.1.>.1.V.F.7.4.2.>.3.>.f.L.M.d.<.p.%.r H { _ _ _ ~ l.9X",
"+X! ) ) _ _ ..g W =.1.7.D.D.4.d.C.1.1.1.:.:.:.=.:.=.:.1.1.>.1.1.1.1.F.F.A.4.1.>.V.F.A.s.1.1.4.}._.x.v.].M.7.%.4 H { _ _ ) ! b.7X",
"&X^ ) ) _ _  .A Y @.>.7.D.A.4.s.C.i.1.1.>.=.:.:.:.=.:.2.1.>.1.1.1.2.F.F.A.4.1.1.7.D.D.V.2.,.M. Xx.z.l.(.{.N.%.6 ' { _ _ ` V ).,X",
"-X] ) ) ^ _ { D z +.1.7.F.A.>.s.s.i.2.1.>.:.=.:.:.-.:.1.2.>.1.1.,.2.F.F.A.7.1.1.4.D.D.A.4.1.{  X X X X X'.p.Q y } ] _ _ ` x {.tX",
"2X{ D ) ) _ { J t O.1.7.F.A.4.s.C.s.1.1.2.:.:.:.>.:.:.>.2.1.1.1.1.4.F.F.F.V.2.1.2.A.F.F.4.2.l h.{.oXoX).a.4.R 0 ..] ) ) ' B  X<X",
"6Xl.~ _ ^ _ ] } t o.>.B.F.F.4.1.Z.C.2.1.2.>.>.-.>.:.>.>.1.2.1.s.1.4.F.F.F.V.1.1.4.A.F.F.7.2.%.i b G H r.p.2.U q X.` ) _ _ V +X3X",
"7X(.! _ ) ) ] | 6 z.f.4.F.F.s.2.C.B.2.2.s.1.:.>.>.:.>.>.>.2.1.2.2.4.F.H.F.A.4.1.4.D.F.G.A.4.s.1.+.O.%.2.N.>.E e ..' ) ) ` V &X0X",
"7X_.V ) ) _ _ g.5 ~.}.3.0.F.4.2.N.Z.s.2.2.>.>.>.>.-.>.1.1.1.4.4.2.7.H.H.F.V.2.2.s.S.H.H.A.s.s.s.p.>.1.2.4.1.z b ' _ _ ) ] ^ -X>X",
"5XoXV _ ) ) _ k.0 N b.<.A.G.4.1.C.Z.B.s.s.1.:.>.>.>.>.1.1.2.2.4.2.N.H.H.F.A.4.4.4.D.H.H.A.s.B.s.p.1.2.2.s.-.z Z { _ _ D _ D 1X8X",
"2X#XV ) ) _ _ g.d K .X4.9.G.4.4.s.S.B.4.s.1.-.1.>.>.>.2.1.1.4.4.2.N.H.H.F.V.4.2.s.F.H.T.D.B.s.s.4.1.2.2.s.:.t Z { ) _ _ _ { 2X7X",
"3X@X^ _ ) _ _ [ A g oXd.V.K.4.2.4.Z.B.4.4.1.>.1.1.:.>.2.1.4.4.4.4.N.H.H.F.N.4.2.B.Y.H.T.F.B.B.s.s.1.2.2.4.;.r H ] ) ] ] _ l.2X1X",
"1X7X` ) _ ^ _ ] H , w.s.B.F.7.2.4.B.Z.s.s.1.1.1.1.:.>.2.1.2.4.s.4.N.H.H.F.B.4.4.B.Y.H.T.H.A.B.B.s.2.4.4.4.%.6 J ] ^ _ ] ( x.7XwX",
"2X>X .^ ^ _ _ ] K l +.2.N.F.V.4.2.Z.S.s.s.2.>.1.1.:.>.2.1.2.4.4.4.V.K.T.F.B.N.2.B.K.Y.T.K.D.B.B.4.4.4.4.2.+.7 _ { ) _ _ ~ [.7X1X",
"2X3Xc.( _ _ _ _ | i +.4.B.H.F.2.2.s.S.s.B.4.1.1.1.>.1.2.2.1.s.B.4.D.T.T.A.N.N.4.4.F.Y.T.T.F.Z.N.N.4.4.4.2.O.0 } _ ) ) ] ~ {.7X3X",
"2X0X`.V _ ^ _ _ | s O.4.B.K.F.N.4.s.S.B.s.1.1.1.1.-.1.4.4.4.s.s.N.D.T.T.D.B.4.4.4.F.T.T.T.H.A.B.s.4.s.4.2.W q g.^ _ ^ _ A  X7X8X",
"3X;X[.V _ ^ _ ) ..g Y 4.B.H.T.B.2.4.V.Z.N.2.1.2.1.>.1.4.2.2.N.N.4.F.T.T.F.B.4.2.4.V.T.T.T.T.A.B.B.4.4.s.1.W q g.^ ] D _ D -X2X1X",
"3X0XoXV _ ^ _ _ ..n U 2.V.Y.T.D.s.2.V.V.N.4.2.2.1.>.1.4.4.s.B.B.B.F.T.T.D.B.s.4.4.B.H.T.T.T.D.Z.B.4.B.4.>.I e  .D ] D _ ( %X3X8X",
"3X2X%XD _ ) _ ) { A U 1.F.T.T.F.4.4.N.B.B.s.2.2.1.>.2.4.4.s.B.N.V.K.T.T.D.B.4.4.N.N.F.T.T.H.S.V.s.4.4.B.:.z b ] _ ] ^ D _ 1X3X7X",
"7X1X;X) _ ) ) _ [ G k 1.F.T.T.H.N.4.4.N.B.s.2.4.1.>.2.4.4.B.N.V.V.T.T.T.D.N.s.4.N.8.F.T.T.F.A.V.4.4.s.B.-.c N { _ { _ D ' 8X7X2X",
"3XqX2X] ) _ ) ) { H p >.K.T.T.T.V.4.s.7.B.4.i.1.1.1.4.s.N.N.V.B.A.T.T.Y.V.B.4.4.N.N.F.T.T.H.S.A.4.4.N.B.-.i S ` H ] ) ^ } >X7XrX",
"8X2X8Xl.) ) _ ) ] } r $.q.q.q.T.6.3.5.5.6.3.3.3.<.$.3.3.5.5.5.6.0.q.q.H.6.6.3.3.5.3.0.T.q.9.9.6.<.3.5.5.o.y H { A ) _ ! x.rX7X7X",
"9X8XqXv.V ~ ~ ! ^ [ a J.Q.Q.Q.Q.R.P.I.E.E.P.P.U.P.P.I.I.I.I.E.U.R.!.!.Q.E.E.I.L.E.E.W.Q.!.W.E.I.U.U.I.E.L.Z S ` V n _ x _.qX7X0X",
"0XrX0X+Xv.n.(.(.[.].&XuXuXeX0XuXuXwXwXuXyX9XyXuXeXwXuXuXwXeXuXyX9XyXuXwXwXuXuXwXeXuXtXwXyXuXwXwXuXuXwXeXuXrX[.x.x...n.l.+X7X0XtX"
};
