/* XPM */
static char *result[] = {
/* columns rows colors chars-per-pixel */
"65 64 202 2 ",
"   c #020301",
".  c #080603",
"X  c #070805",
"o  c #0A0A06",
"O  c #030608",
"+  c #060909",
"@  c #0C0C0A",
"#  c #150D0A",
"$  c #0E110C",
"%  c #13130E",
"&  c #19150E",
"*  c #100F10",
"=  c #0C1213",
"-  c #0B1415",
";  c #141512",
":  c #1A1514",
">  c #171814",
",  c #191916",
"<  c #171718",
"1  c #16191A",
"2  c #1C1D1B",
"3  c #27170F",
"4  c #251716",
"5  c #2C1815",
"6  c #3F1A16",
"7  c #1E201E",
"8  c #21211E",
"9  c #1E1F20",
"0  c #1F2121",
"q  c #242423",
"w  c #262925",
"e  c #292926",
"r  c #272828",
"t  c #2A2B2A",
"y  c #2D302F",
"u  c #32322E",
"i  c #38372E",
"p  c #2C2F30",
"a  c #343432",
"s  c #3B3A35",
"d  c #363839",
"f  c #3C3C3A",
"g  c #581916",
"h  c #610E08",
"j  c #770F0C",
"k  c #6D1510",
"l  c #761F1E",
"z  c #542719",
"x  c #66201C",
"c  c #76211D",
"v  c #423F39",
"b  c #682626",
"n  c #743A3C",
"m  c #3F403D",
"M  c #42423E",
"N  c #434A3C",
"B  c #6A453E",
"V  c #3C4142",
"C  c #3E4749",
"Z  c #434443",
"A  c #4B4B45",
"S  c #474A48",
"D  c #4C4D4C",
"F  c #53534E",
"G  c #4E4F50",
"H  c #4D5252",
"J  c #525353",
"K  c #565957",
"L  c #54595C",
"P  c #5B5C5C",
"I  c #6F5048",
"U  c #5D615C",
"Y  c #61615D",
"T  c #5E6162",
"R  c #5E6C6E",
"E  c #636463",
"W  c #676867",
"Q  c #63666A",
"!  c #6C6D6B",
"~  c #706F6A",
"^  c #72736D",
"/  c #6E6F71",
"(  c #6D7274",
")  c #6F767B",
"_  c #747574",
"`  c #777774",
"'  c #7A7A76",
"]  c #737679",
"[  c #747A7C",
"{  c #7A7C7B",
"}  c #93251D",
"|  c #882225",
" . c #883B3A",
".. c #9A5859",
"X. c #956C65",
"o. c #86857B",
"O. c #81827F",
"+. c #96847B",
"@. c #B68F7E",
"#. c #767E84",
"$. c #7D8284",
"%. c #848584",
"&. c #8B8B86",
"*. c #84878A",
"=. c #84898A",
"-. c #8B8C8B",
";. c #8D9489",
":. c #979288",
">. c #93938E",
",. c #888F92",
"<. c #8E9394",
"1. c #8E9599",
"2. c #8D999F",
"3. c #939493",
"4. c #9B9B95",
"5. c #93969A",
"6. c #959A9D",
"7. c #9B9C9C",
"8. c #B38981",
"9. c #A2988C",
"0. c #A69C96",
"q. c #9EA197",
"w. c #A3A29C",
"e. c #AAA69C",
"r. c #969BA1",
"t. c #9C9EA1",
"y. c #9E9DA8",
"u. c #9DA2A5",
"i. c #9EA5A9",
"p. c #A5A4A3",
"a. c #ABA7A7",
"s. c #ADABA4",
"d. c #A1A6AA",
"f. c #A4A9AD",
"g. c #ABABAA",
"h. c #AFB0AE",
"j. c #B5B2AD",
"k. c #A5ACB0",
"l. c #ABAFB2",
"z. c #ACB1B5",
"x. c #AEB5B9",
"c. c #AFBBBE",
"v. c #B2B3B2",
"b. c #B8B9B6",
"n. c #B2B6B9",
"m. c #B5B9BA",
"M. c #BDBDBC",
"N. c #C9B6AF",
"B. c #BFC0BD",
"V. c #C4C4BD",
"C. c #B6BCC2",
"Z. c #BABFC2",
"A. c #BCC3C6",
"S. c #BEC6C9",
"D. c #BFC9CC",
"F. c #C4C4C4",
"G. c #C8C9C4",
"H. c #C3CACE",
"J. c #CCCBCB",
"K. c #D6CECD",
"L. c #CED0CB",
"P. c #D2D2CD",
"I. c #C6CDD1",
"U. c #C9CED2",
"Y. c #CBD2D5",
"T. c #CBD6DA",
"R. c #CDD5DA",
"E. c #D2D2D2",
"W. c #DADAD6",
"Q. c #D6D6D8",
"!. c #D3D9DD",
"~. c #DBDCDB",
"^. c #E0DFDB",
"/. c #E2E2DA",
"(. c #ECE8DF",
"). c #D5DDE2",
"_. c #DADEE3",
"`. c #D7E1E6",
"'. c #D8E2E6",
"]. c #DCE4EA",
"[. c #DDE9EC",
"{. c #E4E4E3",
"}. c #E8E7E7",
"|. c #E9EAE5",
" X c #E1E6EC",
".X c #E2EAED",
"XX c #EEEEEE",
"oX c #F2F0ED",
"OX c #F0F0EF",
"+X c #F9F7EC",
"@X c #FBF8EA",
"#X c #E4EDF2",
"$X c #EBEFF3",
"%X c #E6F1F5",
"&X c #EAF1F5",
"*X c #ECF4F9",
"=X c #EEF8FC",
"-X c #F4F4F4",
";X c #FDFDF3",
":X c #F5F7F8",
">X c #F6F8FA",
",X c #FDFEFD",
/* pixels */
",X,X,X,X,X>XOXXXXXXXXXXXXXXX>X}.7.f 2 ; ; ; : : < > ; ; ; ; ; ; ; ; ; q J b.,X,X,X,X,X,X,X,X-XXXoXXXXXXXXXoXXXXX:X,X,X,X,X,X,X,X,X",
",X,X,X,X,X>XoXXXXXXXXXXX>X-Xp.s o o % ; , 2 9 q q 9 < ; = ; ; , , ; ; ; . % Z g.,X,X,X,X,X,X-XXXXXXXXXXXXXXXXXXX:X,X,X,X,X,X,X,X,X",
",X,X,X,X,X>XXXXXXXXXXX,XE.J o . ; ; ; > 2 w r t p t 9 < ; ; ; > 8 e 8 2 > $ . . D P.,X,X,X,X:XXXXXXXXXXXXXXXXXXX-X,X,X,X,X,X,X,X,X",
",X,X,X,X,X>XXXXXXXoX,Xl.e   % ; > ; ; ; ; > 2 q r t t r q 2 > ; ; 8 e e w 7 > ;   2 >.,X,X,X:XXXXXXXXXXXXXXXXXXX-X,X,X,X,X,X,X,X,X",
",X,X,X,X,X>XoXXXoX>X3.= X ; 2 q q 8 4 > : : * < 2 r e t t r 4 > > > 8 e e e 8 & % @ . W >X,X-XXXXXXXXXXXoXXXXXXX-X,X,X,X,X,X,X,X,X",
">X>X>X>X>X>X-X:X,X4.@ @ ; 2 q e t t t w 9 1 < ; * : 2 e t t t q > % > 8 t e q > ; ; %   J |.,X-X-X-X-X:X-X-X-X:X>X>X>X>X>X>X>X>X>X",
"oXoXXXXXoX-X,X,Xb.; o % ; > q e t t t p e e q 1 < ; ; < q e t t 8 > % 2 8 t e 2 ; ; : %   F -X,X,X,X,X,X,X,X,X,X-XoX$XoXXXXXoXXX$X",
"XXXX$XoXXXOX,X~.0 . ; , > ; > 4 r r t t t t t t 9 < ; ; , 8 t t e 7 > & 8 e e 7 ; ; 7 2 %   { ,X,X,X,X,X,X,X,X,X:XoXXXXXXXXXXXoXXX",
"oXXXXXXXXX:X,XJ   ; 2 7 2 > ; ; , 2 w r e t t t t q 7 % ; > 9 e e e 2 ; > w t 8 , ; 8 w > $ O p.,X,X,X,X,X,X,X,X>XoXXXXXXXoXXXXXXX",
"XXXXXXXXXX,X0.X ; > 2 7 0 7 > ; ; ; : 2 9 w q q q w q 2 ; ; > 8 t t q ; ; 8 e 8 > & 8 e q > X t |.,X,X,X,X,X,X,X:XXXXXXXXXXXXXXXOX",
"XXXXXXXX-X}.a X ; 2 9 9 9 9 q 9 , ; ; ; > : ; > ; : : 2 , ; ; ; 8 e w , % , e 8 > ; 8 e r 2 ; . -.,X,X,X,X,X,X,X>XXXXXXXXXXXXXXXXX",
"XXXXXXXX>X-.X % ; 2 9 9 9 r t t q 8 : % ; @ O @ @ o @ % ; ; ; ; , q e 7 & , 8 w > ; 9 e t r > X u -X,X,X,X,X,X,X-XoXXXXXXXXXXXXXXX",
"XXXXXX:XW.e o ; ; > 2 8 q e t t r 2 ; % : v K T P J f > @ ; ; ; ; 2 e 8 & ; 8 w ; ; 2 e e e 0 > . g.,X,X,X,X,X,X:XXXXXXXXXXXXXXXXX",
"XXXXXX,Xh.. ; ; ; ; > 2 r t t e 9 ; @ 2 / 7.y.y.t.t.7.$.J q @ % % : w w , % 8 8 ; ; , , 2 2 4 ;   ! ,X,X,X,X,X,X:XXXXXXXXXXXXXXXXX",
"XXoX>X,X$.. ; 1 1 ; ; > 2 q e e : ; < ] t.5.r.5.5.1.6.r.t.-.G < o ; , 8 , ; 2 8 ; ; % % ; ; > ; . s >X,X,X,X,X,X>XXXXXXXXXXXXXXXXX",
">XXXF.F.M o > 2 2 > ; % ; ; 2 : ; @ K t.5.5.5.5.r.2.r.1.5.5.r.( q o ; 2 > % > , ; ; @ q t * ; ; . a >X>X>X>X>X>X>XoX-XOX-X-X-X-X-X",
":XY * : % ; : 7 7 7 7 2 ; ; ; ; % e <.5.5.r.l.I.).!.I.l.i.5.1.r.%.y @ % ; ; ; ; @ 4 L ,.,.a + ; . ^ >XOXXXXXXXXX-X,X,X,X,X,X,X,X,X",
"4.  + * ; ; > 7 7 7 q e q 2 ; % @ P t.5.t.U.H.u.$.#.5.C.).U.k.r.1.*.t @ % ; ; + t #.f.k.i.*.G =   ` ,XXXXXXXXXXX:X,X,X,X,X,X,X,X,X",
"S . 2 2 ; ; ; , 2 q r t t e , % 2 =.5.r.i.L =         O d f. XI.k.6.{ 2 X =   q u.Q._._.).Y.y.9   D -XXXXXXXXXXX:X,X,X,X,X,X,X,X,X",
"r . f P @ ; ; > 1 2 r t t w ; o Z r.r.k.) [ 6.z.z.i.#.C O   Q ]. XA.d.( q ; d z.*X&X%X[._. X).V   t }.XXXXXXXXXX-X,X,X,X,X,X,X,X,X",
"q X F 7.a % > % ; ; 2 q r 2 ; @ E 5.z.'.`.#X#X#X#X#X%X[.A.) - L _.#X).A.1.<.!.%Xx.=.2.I.#X].#XT   2 ~.XXXXXXXXXX:X,X,X,X,X,X,X,X,X",
"2 @ D E Z : % % ; ; ; ; < : * 2 %.7.H.'.`.`.`.]._.).`.`.[.#XI.Q ,.].`.].T.].R.H       = #._.*X(   > K.-XXXXXXXXX:X,X,X,X,X,X,X,X,X",
"9 @ M 7 i J $ ; ; > > > ; ; ; t 5.f.'.`.[.].U.R._.#X#X X].]..X].D.).].`.`.).( L 1.k.i.#.C #.#X_   ; G.>XXXXXXXXX-X,X,X,X,X,X,X,X,X",
"q # u q % W m @ % 2 0 4 : ; + D <.C.[..XY.R r t d D [ d.U. X.X'.`.`.`.`.`.T.D..X#X#X%X#X].C._.#.  * F.>XXXXXXXXX:X,X,X,X,X,X,X,X,X",
"q @ s w . 8 ^ u @ ; 8 e 0 ; @ E r.H.#XI.v .           X 0 Q x.].`.].'.'.'.`.'.'.'.'.'.'.'.'.%X]   % J.>X$X|.XXXX-X,X,X,X,X,X,X,X,X",
"a o t u , * a W 2 @ > 8 4 ; = / u._.[.J   o a A M e > X     = <.#X`.'.'.'.'.#X#X].`.]..X#X].#X_   : E.>X-X-X-X-X>X>X>X>X>X,X,X>X>X",
"E . , W -.T   D _ ; % , : ; 2 *.d. Xu.o . M 9.s.s.e.;.~ v &   t R.'.`.`.'..Xx.T V f m D $.R.>X!   , }.,X>X,X,X,X>XoXXXoXXXXXoXXXoX",
"p.@ X S g./   ! g.Z @ > > % w <.d.[.L   > o.e.w.w.e.:.+.0.P X X u..X'.'..Xn.1             H #XL   t :X,X,X,X,X,X-XoXXXXX$XXXXXXXXX",
"}.m   ; ! #.@ e H S & ; ; # a 5.f.!.p   Z j.j.s.s.+.z g I X.2   ] #X`.`.[.H   $ i m s w O ; f.V   D ,X,X,X,X,X,X>XXXXXXXoXXXXXXX$X",
">Xz.*   2 ` T 2 y m ; ; ; X D 6.d.Y.0   ~ ,X@XoX|.X.h x z I w   R #X`..XB.1   Z s.s.9.o.% @ U e   ` ,X,X,X,X,X,X>XXXXXXXXXXXXXXXoX",
"XX>X%.X . 2 ! 7.<.a % ; = + Q 5.i.Y.p   Y ;X@X@X@X..j c b B 9   ) #X`.#X5.  + ! s.X.z I w o t , . 3.,X,X,X,X,X,X>XoXXXXXXXXXXXXXXX",
"oXXX:X' . O * a a $ @ ; 2 H 5.5.r.R.H   8 /.;X+X;X8.h j | I @ O 1.#X`.#X,.  @ s.K.n k b 8 % ; ; % J.,X,X,X,X,X,X:XXXXXXXXXXXXXXXXX",
"XXXX:XoX-.1   O ; % e ` <.7.5.5.6.H.<.O . ~ ;X,X,X@X@.X.@.i X 0 H.].`.#X,.  @ V.@X .j b 2 ; ; o a :X,X,X,X,X,X,X>XoXXXXXXXXXXXXXXX",
"XXXXXXXX>XF.W q . % s y.7.3.6.5.1.d.T.f   o Z &.G././.L.F X   ` #X`.`.#Xi.  . w.>X@. .I ; ; =   ` ,X,X,X,X,X,X,X>XXXXXXXXXXXXXXXoX",
"XXXX$XXXXX,X,X^.p   @ Z -.y.6.5.5.6.C.m.r       @ & % *     C !.[.`.`.[.I.q   i P.(.N.i $ % ; @ N.,X,X,X,X,X,X,X:XXXXXXX|.XXXXXX$X",
"-XoXOXOXOX-X,X,XJ.r   . t ` 7.5.5.1.r.A.I.! q ;         @ H I.#X`.`.`.`.#X]     # , > o ; ; . G ,X,X>X,X,X>X,X>X>XoXoX-XOX-XoX$XOX",
",X,X,X,X,X>X-XoX,XJ.a   O ; S $.7.t.5.r.c. X~.x.=.#.$.$.6.'.|.'.'.'.'.'.`.!.H       X - : * @ j.,X%XXXXXoXXXXX$X:X,X,X,X,X,X,X,X,X",
",X,X,X,X,X>XoXXXXX>X~.T @   . 1 S ] 5.t.5.d.I.%X*X$X$X$X.X'.'.'.'.'.'.'.`..X).<.$.*.U 7 ;   { :XXXXXXXXXXXXXXX$X-X,X,X,X,X,X,X,X,X",
",X,X,X,X,X>XXXXXXXXX>X>Xa.i o X o $ y J ^ =.1.x.!.].[.].'.'.'.'.'.'.'.'.'.'.%X>X&Xg.s @   K XX:XXXXXoXXXXXXXXX,X,X,X,X,X,X,X,X,X,X",
",X,X,X,X,X>XXXXXXXXXXXXX,XXXp.f ; % % X % 2 s L Q ,.C.!.].#X&X&X%X%X%X%X%X'.Y.6.C @     J OX,XXX&XXXXXXX>X,X~.0.p.~.,X,X,X,X,X,X,X",
",X,X,X,X,X>XOXoXXXXXXXXX>X,Xv.a % ; > % % ; o o @ * 1 a G / [ $.&.*.*.[ ! C 7 O     ; X.>X,X-XXXXXXX,X-XF.` e   . > s ] 7.E.>X,X,X",
",X,X,X,X,X>XXXXXXXXXXX>Xb.J @ X ; , , & > % % ; : * ; + O     X   . . O         > U Y.>X,X,X:X:X,X{.p.H >     . .         ; f G.,X",
",X,X,X,X,X>XXXOXoXXX>X>.#   ; ; 7 8 w 8 ; $ , 2 ; ; ; : 4 ; # ; $ ; % ; % 2 P w.~.,X,X,X,X,X,XJ.{ a X     @ u ' &.E a & @ o   f -X",
",X,X,X,X,X>XoX$X&X,XW.8 X > : q w w w 8 ; ; 2 7 < : ; 5 l l x 5 < ; ; ; % % P -X,X,X,X,X,XN.E ,       > A 4.W.|.|.}.~.V.&.t X @ E.",
",X,X,X,X,X>XoX>X}.>.S @ ; : q w e e w 2 ; ; 2 0 9 1 ; ; x } l 3 * < ; > > %   s $X,X}.3.Z #     . t ^ b./.|./.^.W.W.L.B.-.,   y XX",
",X,X,X>X>X>X>X{.J     X ; > 2 w e w 7 ; ; > 2 0 q q ; = 6 | 6 $ ; ; & , 8 , %   W ` q       % N ;.P.|.(.W./.W.E.B.s.4.>.s . . 4.,X",
"-XXX-XXXOX-X,XY     7 Z 1 @ > 7 q q > % ; 2 0 0 q q < % 3 x 5 = w t : > 8 > ; ; .   @ ; q E g.~.|./.W.W.W.G.j.w.:.3.4.Y $   S -XOX",
"XXXXoXXXXX,X4..   d Z. X<.= o ; 2 , ; ; 1 7 7 q w e 2 % 4 g : @ S D @ ; ; ; X @ . ; ; @ ' OX|.^.~.~.W.B.h.>.3.>.3.q.&.q . > M.>XXX",
"XXXXXXXXXX-XZ   2 n.%X#X[.*.; @ ; ; ; < 2 0 0 q q w 2 : : 4 % * E K o ; . ; H =./ ; ; X M ~.|.~.J.b.w.>.>.>.>.4.>.' f o   ' >XoXXX",
"XXXXXXXXXX}.a   D $X].).'.$X7., ; ; ; 2 7 0 0 0 r r 9 ; ; ; % : ~ Y % @ a z..X*X*X! o % % w.L.h.7.>.>.>.4.4.&.U u % .   a ~.:XXXXX",
"XXXXXXXXXX-Xf   e H.#X'.`.[.$XH @ ; > 7 0 0 0 q r q q : * = ; , / W % X #.-X`.'.#X$.. ; X D 4.>.>.>.q.4.' D 8 X .   $ Z M.>XXXXXXX",
"OXXXXXXXXX,X-.  . D H.%X#X#XA.m + ; 2 0 0 0 0 q r r r 9 2 > 2 8 ~ ~ ,   ( #X`.].#Xc.> % % 2 %.w.4.>.E f % .   . 7 ! b.XX>XXXXXXXXX",
"XXXXXXXXXX>X-Xs     q ` n.( 2 @ % ; 2 0 0 0 7 q r r r r w q w u ~ _ 4   L %X'.`.*XR.w % ; @ F o.F 8 @ .   o M 3.~.>X>XXXoXXXXXXX$X",
"XXXXXXXXXX-X,X~.S     O ; O   $ % ; 2 7 8 7 8 w r r e e r r e e ~ _ 4   P =X%X.XS.P @ ; ; % 2 , X .   , P b.>X,X,XXXoXXXXXXXXXXXoX",
"XXXXXXXXXX-X>X,X>X>.w       u f o > > 2 7 7 7 8 q r r w e e e a _ { t o e %.[ D 2 X ; ; : ; @   X u %.~.,X,X,X,X>XXXoXXXXXXXXXXXoX",
"-XXXXXXXXX-X,X>X,X,XXXz.&.>.|.b.$ % ; % % > > 2 2 4 q 7 8 q 8 u ~ ! w ; @ .     X % ; % o   ; J g.OX,X,X,X,X,X,X:XoX$XOXXXXXXXXXOX",
">X,X>X,X,X-XOX-X-XoX-X,X,X,X,X'.2 % ; ; ; ; ; ; % ; ; ; > > > , 8 8 > o @ @ @ 8 u .   . 8 _ F.-X,X>X$X-XOX-X-XOX-X>X,X>X>X,X>X,X>X",
",X,X,X,X,X>X$XOXXXXXXXXX|.}.OXK.> % 2 2 7 2 ; % ; , $ ; % % > ; & % @ 8 %.V.V.W.Q.O.P -.W.>X-X^.{.^.{.}.}.}.}.XX-X,X,X,X,X,X,X,X,X",
",X,X,X,X,X>XXX}.}.{.^.~.~.Q.Q.M.2 ; 7 w w 8 > . P M.` % ; , 7 , > ; @ -.{.{.~.~.).{.^.{.Q.Q.E.J.J.K.E.E.E.Q.Q.~.}.-X>X>X>X,X,X,X,X",
",X,X,X,X-XXX~.Q.E.U.J.J.J.F.G.v.> % > 7 8 4 % $ 4.|.F.e o > , , > $ @ d.Q.E.E.E.E.E.E.E.E.E.J.F.F.F.F.F.F.F.F.J.E.^.{.}.XX-X:X,X>X",
",X,X,X-X{.Q.J.G.F.F.F.F.F.F.F.M.m   % > ; ; . 8 F.~.J.!   o % @ . X J F.J.E.E.E.E.E.E.P.U.E.F.F.F.F.F.F.F.F.F.F.J.E.E.E.W.~.{.oX>X",
",X,X-X{.W.U.F.F.F.F.F.F.F.F.F.J.h.f @ . . X % %.W.J.F.b.P q ; t D %.M.F.J.E.E.E.K.E.U.E.E.E.J.F.F.F.F.F.F.F.F.F.J.E.E.E.E.E.E.{.-X",
",X,X:X|.~.E.F.F.F.F.F.F.F.F.F.F.~.P.i.X./ { v.Q.E.E.F.F.J.b.g.B.J.J.F.F.J.E.E.E.E.E.E.E.E.E.G.F.F.F.F.F.F.F.F.F.F.E.E.E.E.Q.~.}.:X",
",X,X,X>XXX{.E.J.J.F.J.F.F.F.F.F.E.R.`._.~.^.Q.E.E.E.F.F.F.F.F.F.F.F.F.F.J.E.E.E.E.E.E.U.K.E.J.A.F.F.F.F.F.F.F.F.J.Q.Q.~.^.{.XX>X,X"
};
