/* XPM */
static char *result[] = {
/* columns rows colors chars-per-pixel */
"64 64 249 2 ",
"   c #6D4E39",
".  c #795539",
"X  c #7A4B4B",
"o  c #6E5B4D",
"O  c #7A5945",
"+  c #754F50",
"@  c #7C5A57",
"#  c #7E6D4C",
"$  c #776557",
"%  c #7C635D",
"&  c #7F5E65",
"*  c #786565",
"=  c #77776F",
"-  c #875939",
";  c #8C5D3A",
":  c #925D39",
">  c #8B633B",
",  c #88643B",
"<  c #8D6B3C",
"1  c #926335",
"2  c #93643C",
"3  c #9C6638",
"4  c #936A3E",
"5  c #9B6C3C",
"6  c #9C723D",
"7  c #9D783F",
"8  c #A36B39",
"9  c #A3723D",
"0  c #A6783B",
"q  c #B07D3D",
"w  c #845E43",
"e  c #895C47",
"r  c #905E47",
"t  c #865D5B",
"y  c #846244",
"u  c #8C6543",
"i  c #846C47",
"p  c #8D6B43",
"a  c #84624C",
"s  c #8C654B",
"d  c #866A4C",
"f  c #8D6C4B",
"g  c #936543",
"h  c #9A6741",
"j  c #936B45",
"k  c #9B6C44",
"l  c #92654C",
"z  c #946C4B",
"x  c #9A6D4B",
"c  c #8D7449",
"v  c #947344",
"b  c #9C7244",
"n  c #9A7944",
"m  c #94714C",
"M  c #9C734C",
"N  c #957A4B",
"B  c #9D7A4C",
"V  c #846554",
"C  c #8B6553",
"Z  c #856A57",
"A  c #8B6B53",
"S  c #84645B",
"D  c #846A5B",
"F  c #8C6C5C",
"G  c #936655",
"H  c #936B54",
"J  c #9A6E54",
"K  c #936D5B",
"L  c #9A6E5A",
"P  c #847355",
"I  c #8D7254",
"U  c #8D735B",
"Y  c #8C7A59",
"T  c #947353",
"R  c #9C7553",
"E  c #957A54",
"W  c #9D7B54",
"Q  c #94745B",
"!  c #9A745B",
"~  c #947B5B",
"^  c #9C7B5B",
"/  c #A26E41",
"(  c #A27444",
")  c #AA7544",
"_  c #A47B45",
"`  c #AB7D45",
"'  c #A2754B",
"]  c #A47B4C",
"[  c #AA7D4B",
"{  c #B17D4D",
"}  c #A37553",
"|  c #A37C53",
" . c #A77956",
".. c #A47C5C",
"X. c #AB7D5B",
"o. c #B17D52",
"O. c #815C62",
"+. c #866567",
"@. c #8C6B63",
"#. c #926C63",
"$. c #9A6E61",
"%. c #8E7968",
"&. c #947263",
"*. c #9A7463",
"=. c #947C63",
"-. c #9C7B64",
";. c #94756A",
":. c #9B756B",
">. c #937D6C",
",. c #9D7B6A",
"<. c #8D7372",
"1. c #997472",
"2. c #957C73",
"3. c #967A77",
"4. c #9C7B73",
"5. c #A47D63",
"6. c #AA7D62",
"7. c #A37B69",
"8. c #AA833E",
"9. c #918156",
"0. c #948254",
"q. c #9C8354",
"w. c #94825E",
"e. c #9C845C",
"r. c #9E8A5B",
"t. c #A68546",
"y. c #AB8345",
"u. c #A3824D",
"i. c #AB834C",
"p. c #AC8A4D",
"a. c #B28847",
"s. c #B38B4C",
"d. c #B49146",
"f. c #B4924D",
"g. c #A48353",
"h. c #AB8454",
"j. c #A58954",
"k. c #AC8B54",
"l. c #A4845C",
"z. c #AB845B",
"x. c #A48A5C",
"c. c #AC8B5B",
"v. c #B28553",
"b. c #B48C54",
"n. c #B68958",
"m. c #B28C5B",
"M. c #AE9355",
"N. c #A5925A",
"B. c #AC935C",
"V. c #AE9B5B",
"C. c #B39354",
"Z. c #B79855",
"A. c #B3935C",
"S. c #B9945C",
"D. c #B49B5B",
"F. c #BA9A5C",
"G. c #B9A35F",
"H. c #8E816C",
"J. c #948364",
"K. c #9D8363",
"L. c #9A8A65",
"P. c #95836C",
"I. c #9D846B",
"U. c #9D8B6C",
"Y. c #9B8E6F",
"T. c #938472",
"R. c #9B8473",
"E. c #93837B",
"W. c #968C7D",
"Q. c #9C8978",
"!. c #9D8C7B",
"~. c #A48463",
"^. c #AA8564",
"/. c #A48B63",
"(. c #AC8B64",
"). c #A3836B",
"_. c #AB856B",
"`. c #A48B6C",
"'. c #AC8C6B",
"]. c #B18567",
"[. c #B28C64",
"{. c #B28D6C",
"}. c #A59264",
"|. c #AB9164",
" X c #AC9966",
".X c #A4926B",
"XX c #AC936B",
"oX c #B39364",
"OX c #B89864",
"+X c #B3946C",
"@X c #B9956B",
"#X c #B49A6B",
"$X c #BA9B6D",
"%X c #A38572",
"&X c #A48B73",
"*X c #AB8C73",
"=X c #A3857B",
"-X c #A48C7C",
";X c #AB8D7B",
":X c #B18F72",
">X c #A59575",
",X c #AC9374",
"<X c #AC9A74",
"1X c #A5937C",
"2X c #AC947C",
"3X c #AE9A7B",
"4X c #B39473",
"5X c #BA9772",
"6X c #B49B73",
"7X c #BA9C73",
"8X c #B3947C",
"9X c #B49D7B",
"0X c #B99D7A",
"qX c #B7A369",
"wX c #AEA279",
"eX c #B4A375",
"rX c #BCA273",
"tX c #B4A37B",
"yX c #BBA37C",
"uX c #B9AA79",
"iX c #C09B5F",
"pX c #C3A67A",
"aX c #927F85",
"sX c #8A8389",
"dX c #9C8381",
"fX c #968887",
"gX c #9C8C82",
"hX c #9C898D",
"jX c #9B9288",
"kX c #898793",
"lX c #978992",
"zX c #9F9191",
"xX c #A48D81",
"cX c #A69282",
"vX c #AB9583",
"bX c #AE9D83",
"nX c #A9988A",
"mX c #B29D82",
"MX c #B69A84",
"NX c #A69999",
"BX c #ADA585",
"VX c #B4A383",
"CX c #BCA483",
"ZX c #B9AA87",
"AX c #B6AD8B",
"SX c #BDB389",
"DX c #A9A193",
"FX c #B4AB97",
"GX c #C1A989",
/* pixels */
"XXXX+XoX(.+X4X+X:X{.'.].'.'.^._.:X*X_.*X).&X`.I.%X2X2X2X9XVXVXCXVX9X<X&X&X&X2X-XxX=X-X=XxX;X;XvX8X;X:X:X*X_.).-.=.).%X%X%X%X*X%X",
"[.m.(.[.(.(.oX+X{.(./.~.^./.(.(.+X,X,X*X*X+X'.(.(.XX5XyXCXGXyXpXrX6X6X+XoX+X+X9X9X3X2X9X9XMXMXMX8X8X6X4X+X|.XX|.'.+X4X6X4X9X9X8X",
"=X=X=X=XxX-X=XxXcX-X-X-XxXxXQ.-XvXvXcXcXcX*X*X'.*X4X8XMXMX0X8X7X9X4X4X{.].[.oX$XrX7X7X0X8X9X8X0X7X+X+X+X{.[.(.c.^.oX+X+X+X#XrXrX",
"BXBX3X3X9X3X3XtXVXbX3XVXmXbX2XvXCXtX0X9X<XXXXX'.`.4X9XrX6X#XoXoX#X#XXX'.z.z.c.k.A.oX@X+X4X5X6X5X4X4X:X4X{.^._._.'.'.{.'.(.|.+X+X",
"OX$X7X7X5X6X7X0X9X4X5X7X0X0X5X6X$X#XOXA.m.j.z.(.(.oX|.+X4X'.^.c.[.[.(.(.(...| _ [ j.[.[.(.'.4X*X:X{.'.{.'.'.'.(.(.'.{.'.'.(.{.'.",
"*X8X8XvXvXvXvXmXvX2X-X8XvX2X;X=X).).).5.*.*.K.%X-X=X!.1X-X&X%X)._.).~.'.{.6.x j b ] h.v.h.j.c.^._._.(.c.[.m.c.x.x.(.|.c.(.[.(.m.",
"3X9XtX0XtX0XyXyXtX9X<X<X3X>X,X;X&X&XQ.R.Q.=X1XBXDXDXDXDXNXnXnXvXvXvXcXvXvX=X3.<.<.1.1.:.*.-.).).^.6.....} } g.R ..z.z.l.^.%X%X_.",
"p.s.b.C.b.S.C.S.A.A.A.A.C.b.M.M.p.M.M.B.B.A.#XrXpXuXuXGXSXyXtXtXeXeXuXuXeXeX<X>X>X1X&XQ.gXgXgX=X&XQ.&XR.>.:.,.*.,.7.:.7.%X&X2X-X",
"; 4 5 6 6 ( ( 9 / ( b k 5 5 5 5 4 k 6 k ( _ y.a.b.b.S.OXOXOXS.oXOXn.s.a.a.a.y.a.v.s.C.C.Z.OXF.B. X X X.XXX/.}./.}.}.r.}. X#XrXeX",
"@ S Z Z F F F V C S S S V t t O.O.@ S S F @.@.;.:.1.:.>.7.%X4.=X4.#.G G t t t G G $.L L L ! 5.6...5.....X.6.^.^...~.X.^.^.^.{.[.",
"fXfXfXfXdXE.>.P.T.T.T.H.H.P.E.fXE.T.T.T.W.jXNXNXNXNXNXzXxXnXNXNXjXfXaXaXsXkXkXkXkXlXlXsXsXsXlXlXlXfXfXlXlXhXhXhXhXhXhXNXlXhXxXhX",
"wX<X<X9XXX/.r.x.l.^.x.x.x.(.#X6X<X X.XXXXXtXAXSXGXGXSXZX3X3XZXSXAXBXwX<XeXuXuXuXtXeXuXwXwXZXAXAXAXAXZXAXAXAXAXAXAXAXFXFXFXFXFXFX",
"<X/.|.+X~.^ ! ! ^ -.^ -.I.%X*XoX(.(.^._.{.4X7XpXGXpXpX0X5X8XCXGXZX3X*X'.+XOXOXS.OX#X+X4X0XCXCXGXyX0X0XyXyXCXCXCXCXyXyXCXCXZXGXGX",
"/.~.).).I.-.=.-.7.I.).&X-XcX;X`.`.`.%X%X*X8XMX8XyX0X8X8X2X8XMXZXmXvX-X&X%X'./.^.^.(.'.XX9XyXuX6X4X+XXX+X5X6X0X6X4XXXXX+X4X7XuXpX",
"[ [ u.h.g.h.p.p.j.k.B.oX#X#X|.(.c.c.c.k.c.A.oXoXoXA.A.k.M.A.D.F.D.F.Z.b.p.t.` 0 0 0 8.8.a.d.d.a.s.y.p.s.d.f.d.p.y.8.8.y.y.i.b.Z.",
"l j m M M k k k 6 6 b _ y.y.y.` _ _ n b b ( ( ( ( [ ( 6 / / ( 0 9 8 ( 9 5 3 1 ; > ; ; : : : ; : 1 1 1 3 1 1 1 1 1 > > > ; : 2 h ",
"% P T ~ Q d s C C a w u u g j p u s y a V Z S S @.@.@.@.<.+.+.+.% @ t S % % % +.* % * @ @ @ @ @ @ % t @ @ + @ @ & & * & & * * +.",
"E n u.j.q.0.v n v u > p < p p j p j p c N N c 0.0.0.0.0..XY.L.J.9.9.J.J.J.J.J.P.J.J.K.J.P.P.T.T.T.E.E.T.E.E.2.E.fXjXgXW.gXjXjXjX",
"T H L ! *.K K G s s A H G z G l j g g h h k v M R } ' _ y.y.y.' B | [ v.i.y.a.y.a.y.i.t.p.s.f.C.V.D.G.V.D.D.D. XqXqXqXG.F.G.qXG.",
"T.>.K.P.J.J.=.~ =.J.J.~ J.J.~ ~ I A I m m I T =.=.Q J H p s f C C K L L L H J T H L L z h m ' ( 8 0 ) ( ) ) [ [ h.n.n.v.{ o.{ { ",
"B.N.k.k.B.k.k.k.c.j.g.u.p.h.g.u.B N W ^ E B g.j.j.n b j < < v N B u.0.0.0.E E ~ ^ T T I j f z j j j > 4 u j m E ^ 5...^ ! R R R ",
"` [ ' [ ] ] ] _ 9 5 5 9 9 9 8 5 5 ( ' ] M ( _ u.] b 4 2 2 : 2 k b k 0 0 _ b ' | ] B b n m j m v 4 < < , < 4 B B g.g.g.q.g.W q.g.",
"5 k h j h h 2 2 > , u j > > ; > 2 j b ( 6 b ( ' n v p > > ; u C C s u p x x m j j m m M m T H j g > > ; 4 h 6 9 9 9 ` [ ] ] ] | ",
"u p < u u < < > < u f f s s s s u j h k k k k ( b 5 h p p p N E Q T f f z z z z z z m R M n B n v 4 2 < > < > 2 2 j x } | ' _ ] ",
"j m k x j j g u 4 p j f z m m z j j j j u s l h g ; s l z J } R R T z f x j x z m T J R ' ' ' M x l g r u a a e e s f m } ' x R ",
"j x x j j u u w w e C Z Q Q ! Q K Q ! &.K U D S S +.+.+.#.&.&.@.F F +.+.@.@.@.@.;.&.*.#.#.#.$.K F D S D F @.@.Z V Z A f A F K *.",
"C f f f z A d d Z D =.T.Q.).U.I.I.=.I.I.U.U.J.=.>.>.P.P.P.P.P.>.%.%.>.H.H.T.W.fXW.T.P.>.>.2.T.P.=.=.J.I.U.U.K.w.~ Q =.-.=.=.=.=.",
"^ N k v N N M N B ] j.c.B.c.k.h.u.g.j.j.j.p.u.] u.j.j.j.k.j.q.q.l.l./.}.}. X#X6X<X<X.X.X`..X`.'.'.*X{.,X'.'.`.~.K.K.~.~.`./.~.l.",
"L K H G H H H H J ! $.*.*.*.*.*.*.L ! #.K #.F H J T K L :.:.1.1.3.4.Q.Q.=X%X8X9X,X*X%X*X'.*X'.'.*X,X2X2X2X2X2X*X`.).K.x.(.(.^...",
"=.=.=.U Q ~ ~ ~ Y =.J.P.P.>.P.P.P.T.P.P.I.>.=.~ E E E e.U.Q.>X!.!.!.1X3X>X>X3XmXvXvX;X*X,XXX'.XXXX X#X6XyXyXtX3X&X&X%X&X1X`.~.e.",
"j.j.g.g.W R B ] b u.j.B.B.B.N.A.B.B.k.k.p.k.u._ n 3 6 ( y.C.C.C.Z.Z.f.f.C.Z.D.qXeX9X4X8X,X/.x.B.v.v.C.f.f.Z.Z.f.M.M.N.A.B.B.k.u.",
"[ ] ' ' M x h g 2 k _ { i.{ ` y.{ _ 9 3 5 k l r e - - - 1 8 8 8 8 8 8 8 8 8 q a.s.d.d.f.s.y.) ) 8 8 3 1 8 8 / h k k ' M ] _ / / ",
"x z H A A V V a O a C f g g r : g y . O O V Z $ $ o o o o O O O O + + + X X e e w 2 2 g g g ; - -       . . O O O i f c m z d y ",
"; d I U U U P P U U Z Z Z $ d i d f A P I T E m E 9.I P # P P $ * = = = = * * * $ * * % $ @ o O O $ $ * * D z f p v M ' N N c c ",
"y f B | g.] W W q.u.g.l.e.e.^ ~ E ^ ....W x x } | | } ../.x.| q.r.}. X X.X>XQ.L.K.e.r.r.L.~ P Z %.T.E.fXQ.dXdX3.3.2.3.4.1.1.:.:.",
"I m M ] | ] b b k b ' [ [ | | W W | j...W Q ~ Q ^ ^ ^ ..6.^.-...x.m.(.[.@X+X].^.z.] g.c.(.z.~.I.>XtXtXtXZXBXAXBXbXnXnXcXgX-XcX1X",
"^ ^ ^ ^ W ^ R H H z T R M } M | | g.j.j.g.^ ~ e.l.W g.l.~./.K.K.~.(.^.|.oX|.|././.I.7.).'.`.'.XX6X6XrXpXrXpXpXpXuXyXyX0X6XeXeXtX",
"c.j.g.| g.W E W E T E R W T R T R ]  .| | | R | | R | ~._.`.~.^.^.z.j.c.m.c.oXA.c.B.c.|.(.oXoX$X#XoXoX+X$X7XrX7XrX7X7X5X6X6X6X0X",
"i.h.u.i.u.B B B W g.B ] ' B n 7 7 n _ ] } | B R ' | | ^.XX/.l.x.^.j. .o.h.} j.z.z...z.(.[.].[.@X+X[.oX+X$X5X4X4X4X+X4X'.'.4X+X4X",
"h.| b ' ' b } R | g.] B N b h 2 3 3 5 k / M M M R | | (.(.~.j.z.l. .! 5.} R ! J T T 7.^.^.^.'.[.oXoX'.+X+X+X4X8X,X+X4XXX*X'.XX8X",
"z.' b b b v M M M | | M T l e w w l H M z x j v m b | z.z.o.| ] M m R ..^ ^ ~ T I ~ K.}./.(.(.|.'.XX{.XX+X+X4X5X+X6X$X6X#X X X#X",
"] b n m u , p j x R R R W ! Q A I E ^ T A p j p j j m N R } | T T T W E E ^ ^ I T ^ c.|.oX(.c.M.b.b.c.m.A.S.F.F.F.Z.F.F.m.n.n.b.",
"} J *.:.@.S S C H W g.u.j.j.u.B B B B M u a a a C d C Q &.Q Q K H F K Q #.&.%.@.#.$.7.6.].].6.} } 5...X.z.6.z.z.o.X.X.6.7.:.$.*.",
"h.j.x.(.).~ ~ E M ] } | } } | M x m R T f A d A A I T Q K.J.J.~ U U %.=.P.P.>.>.<.>.3.R.R.4.;.<.<.3.R.R.2.R.2.2.;.2.4.%XQ.Y.Y..X",
"u.h.b.k.j.| W W T m T W W M T m p m m m p v m m m T T T q.l.l.e.e.e.e./.x.x.q.j.x.q.x.r.r.x.r.r.r.N.}.N.N.N.N.N.r.N.V.V.D.D.Z.f.",
"^ e.7.K.5.! ! ~ &.Y ~ E W u.W ^ I z m x j p z f z A A K Q ! *.-.-.7.I.,.=.*.*.;.*.&.*.,.:.:.1.-.5.6.6.^.6.X.| ..g.g...| |  .} ' ",
"%X).`.).U.).L.~.~.l.g.| u.] u.j.u.N m m T c c N E 9.0.9.~ e.e.r.x.x.x.x.r.w.J.H.T.P.T.E.W.gXjXW.W.gXgXgXW.E.dXdXdXdXdXaXE.3.3.3.",
"<X,X'.'.^./.z.z.c.z.g.] M m b ' h.l...E ~ W } W | g.] g.g.c.c.z.h.h.h.j.c.c.N.N.}..X X<XeXeXeXeXeXeXuXeXeXeXtXtXwXwXwXwX3XwX<X3X",
",X,X*X*X'.'.^.^.).^.)...-.~ H ^ K.~.~.~...^ ^ ! ^ ! ^ ..7.).).-.-.! Q ^ ..l./.~.~.~.^.'.{.@X5X$XqX$X$X$X+X+X$X5X$XrX$X4X@X@X#X@X",
"vXvXnXcXcXcXcX1X-X-X-X;X-XQ.P.~.~.l.z.v.h.k.j.x.l.l.6.~./.'.(.l.e.E B W q...l.).5.7.~.'._._.{.+X4X*X:X,X*X'._.*X*X{.{.(.'.*X*X*X",
"VXVXVX9X9X9XtXtXtX9X6X6X6X,XXX X/.~.l.z.c.c.c.z.c.c.c.c.c.c.z.j.g.R B ] g.q.j.x.|.|.B.}.}.XXXXXXXX|.|.XX.X`.&X,X,X>X&XQ.&X&X&X`.",
"yXtX9X9X6X6X6X5X@X@XOXOXOXoX+X|.|./.`..X2X'._.(.(.(.A.k.b.k.k.c.k.g.] ] ] y.i.b.f.M.k.N.OXA.A.A.|.B.c.A.Z.B.M.OX XXX<XXX<XXXXX X",
"OX#X#X#X+X@X{.[.[.c.m.oXoX(.c.c.A.OX#X6X9X5X@X[.[.(.c.c.z.g.z.(.(.l.R } } } }  .X.X...~.].{.[.^.^._._.]._.X.h.z.[.:X4X4X(.c.c.m.",
"A.Z.A.C.b.b.h.i.i.t.i.b.k.C.C.b.C.S.F.iXOXiXOXOXOXA.m.c.j.z.(.+XXX/.e.x.e.e.~.(.'.^./.(.XX'.(.(..XXX,X,XI.I.,.%X;XmXmX1XR.I.I.7.",
"m.b.g.h.g.h.] ] ] ] h.z.h.v.m.C.b.a.s.s.n.C.C.S.F.S.n.b.k.b.F.F.F.S.c.oXA.A.b.m.C.C.A.A.A.B.b.C.C.Z.D.A.M.B./.XX#XrXqXqX|..X/..X",
"l.| | X.l...W W W | l.z.] h.v.` ( ' ' } | o.h.n.S.n.h.h.v.n.n.b.s.b.b.b.m.n.m.m.m.z.^.'.{._... .' o.v.i.p.b.C.b.s.s.a.v.s.k.p.k.",
"j.h.z.(.^.j.l.l.l.z.c.B.l.l.j.W M W W j.l.X.X.z.m.h.h.h.h.c.z.| | v.n.h.v.z.].].(._._.'.&X;X%X;.=.:.,.-.*.5.X.X.R J K L ! Q ! ^ ",
"z.j.c.m.c.c.z.z._.[.[.{.'.*X_.-.^ ..^.(.(./.l.k.h.h.y.p.n.k.z.| } z.z.z.X.z.z.c.[.{.'.|.XXXX`.U.U.U./.K.e.e.e.^ ~ ~ ~ ~ ~ K.e.K.",
"z.z.c.z.c.j.l.h.h.c.k.k.k.m.z.l.z.c.m.[.m.k.k.v.i.[ ]  .| z.l.5.~.^.).~.~.`.'.'.'.'.'.XX}.XX}._._.^.~.l.^ ^ W e.^ E e.e.W q.W W ",
"l.).).).=.:.*.*...l...W l./.l.l./.l./.^.5.6.} } } T E E ] j.j.c.|.|./.c./.|.B.B.B.A.c.k.c.c.c.x.r.e.q.E 0.q.W ^ ! Q T ~ Q K A A ",
"l.x././.e.~.e.e.e.~.l.^ l.c.~.~.~.~.~.).~.-.^ n n [ _ u.[ [ y.v.n.h.p.h.p.i.i.` y.0 y.0 ` [ h.| u.] ' ( M b n v n v v v n v < # ",
"| g.g.j.x.j.x.g.g.g.| W | h.j.z.k.j.j.c.x.g.N j x ' } J H k x } } R R } } R x k x h 4 2 h k ' x J J H l f s u y d s y d y y O , ",
"R N R W R ^ W R m M M x x k ' ' ( b 6 n ' m z z f H T ~ I V A T T m ~ =.~ ~ A I I z < - > 4 p p z c p i c i d d Z Z V V Z * P % ",
"U F #.;.;.;.;.@.A I m j u u j 2 > - . - 2 u s p f m R ! T I H ~ m R ..j.j.W W N W m y . w y y y u u d u y s u f f f I E Y 9.w.Y "
};
